<?xml version="1.0" encoding="UTF-8"?>
<svg version="1.1" xmlns="http://www.w3.org/2000/svg" width="512" height="512">
<path d="M0 0 C1.54185774 1.33017897 3.06290839 2.6848475 4.5625 4.0625 C5.80386719 5.16658203 5.80386719 5.16658203 7.0703125 6.29296875 C22.70290971 20.94554075 32.95234408 42.07076434 33.9453125 63.48828125 C34.66020355 90.9246404 28.0415857 113.51532541 9.03125 133.7578125 C6.90948731 135.90024171 4.75403755 137.99196759 2.5625 140.0625 C1.56046265 141.0604585 0.56011559 142.06012126 -0.4375 143.0625 C-0.03917969 144.28582031 0.35914063 145.50914062 0.76953125 146.76953125 C12.78030806 184.52741752 11.85839684 225.28385729 -6.4375 261.0625 C-16.97255802 279.89032577 -31.31273179 295.11932812 -46.5625 310.1875 C-48.83899027 312.43704956 -51.11189008 314.69014379 -53.3828125 316.9453125 C-53.88716827 317.44136993 -54.39152405 317.93742737 -54.91116333 318.44851685 C-57.66546004 321.18428246 -60.27450995 323.9946269 -62.81005859 326.93505859 C-66.52860786 331.22809406 -70.49307137 335.22793599 -74.53125 339.21875 C-75.65678284 340.33860291 -75.65678284 340.33860291 -76.80505371 341.4810791 C-79.97966504 344.63951112 -83.16025916 347.79189279 -86.34033203 350.94482422 C-88.67690361 353.26319745 -91.01037999 355.5846552 -93.34375 357.90625 C-94.0512439 358.60544556 -94.75873779 359.30464111 -95.4876709 360.02502441 C-99.47415099 363.99207098 -103.27180299 368.05981177 -106.93177795 372.33068848 C-108.97622045 374.68211123 -111.15537421 376.8770223 -113.375 379.0625 C-114.14714844 379.825625 -114.91929687 380.58875 -115.71484375 381.375 C-116.56755859 382.2103125 -116.56755859 382.2103125 -117.4375 383.0625 C-111.07935184 382.45739837 -105.00622518 381.41982711 -98.78515625 379.99609375 C-96.93703705 379.58833926 -95.08872299 379.18146714 -93.24023438 378.77539062 C-90.38223396 378.14328365 -87.52587916 377.50592398 -84.67260742 376.8527832 C-66.64669787 372.74408602 -50.00824286 369.77450846 -33.0625 378.875 C-27.1320286 383.8170595 -23.8920221 389.60184124 -23.1015625 397.359375 C-22.96387184 409.53122956 -25.55980159 416.56229575 -33.6328125 425.640625 C-41.58609501 432.50836199 -50.62447882 435.80159794 -60.53125 438.8984375 C-61.90544409 439.33836387 -63.27927588 439.77942331 -64.652771 440.2215271 C-68.31778124 441.39786286 -71.98749054 442.55881927 -75.65834045 443.71678162 C-79.49487423 444.92997462 -83.32679886 446.15755381 -87.15917969 447.38378906 C-93.33625207 449.3584881 -99.51575475 451.32537425 -105.69726562 453.28613281 C-113.44436281 455.74389761 -121.18470489 458.22207172 -128.921875 460.7109375 C-139.00596321 463.9536446 -149.09548975 467.17879682 -159.18945312 470.390625 C-162.58013117 471.46977379 -165.96949197 472.55287983 -169.35742188 473.640625 C-178.36042099 476.53025419 -187.37434043 479.3659036 -196.4375 482.0625 C-197.30455566 482.32514648 -198.17161133 482.58779297 -199.06494141 482.85839844 C-208.64868389 485.68495827 -217.88922882 486.43341852 -227.875 486.5625 C-228.93436768 486.58135254 -229.99373535 486.60020508 -231.08520508 486.61962891 C-252.43552598 486.44821832 -273.73149803 478.58318804 -294.15713882 472.94738388 C-298.42287364 471.77171982 -302.69037948 470.60252155 -306.95776367 469.43286133 C-312.98528313 467.78022525 -319.01230398 466.12579559 -325.03861141 464.46874523 C-334.93017198 461.7489247 -344.82491992 459.04100634 -354.72265625 456.34375 C-355.37927372 456.16481012 -356.03589119 455.98587025 -356.71240616 455.80150795 C-359.86179586 454.94333493 -363.01126213 454.08544338 -366.1607666 453.22769165 C-371.81197984 451.68832561 -377.46261943 450.14685743 -383.11328125 448.60546875 C-384.94571651 448.1057023 -386.77815432 447.60594517 -388.6105957 447.10620117 C-389.87347412 446.76177979 -391.13635254 446.4173584 -392.4375 446.0625 C-392.829375 446.97 -393.22125 447.8775 -393.625 448.8125 C-395.60469749 452.36230239 -397.04267818 453.86844303 -400.4375 456.0625 C-403.73852539 456.57043457 -403.73852539 456.57043457 -407.53515625 456.58007812 C-408.57758987 456.59059204 -408.57758987 456.59059204 -409.64108276 456.60131836 C-411.92780051 456.61885778 -414.21327068 456.60729139 -416.5 456.59375 C-418.09513587 456.59644611 -419.69027013 456.60032953 -421.28540039 456.60534668 C-424.62434577 456.61123619 -427.96286237 456.60269686 -431.30175781 456.58398438 C-435.57585277 456.56119463 -439.84894298 456.57432072 -444.1230011 456.59827423 C-447.41564467 456.61274732 -450.70805109 456.60811941 -454.0007019 456.59776306 C-455.57632568 456.59509993 -457.15197118 456.59835101 -458.72756958 456.60768127 C-460.93223877 456.61787246 -463.13529438 456.60231306 -465.33984375 456.58007812 C-466.59273193 456.57689575 -467.84562012 456.57371338 -469.13647461 456.57043457 C-473.02026793 455.97282848 -474.66937649 454.79633692 -477.4375 452.0625 C-478.75520788 449.42708425 -478.57243812 447.45525761 -478.58467102 444.50273132 C-478.59182632 443.32081207 -478.59898163 442.13889282 -478.60635376 440.92115784 C-478.60904266 439.61774948 -478.61173157 438.31434113 -478.61450195 436.97143555 C-478.62076583 435.59010649 -478.62741257 434.20877912 -478.63441467 432.82745361 C-478.65183111 429.0690976 -478.66237814 425.3107543 -478.6706202 421.55236793 C-478.67576893 419.20483475 -478.68184472 416.85730554 -478.68813133 414.50977516 C-478.7071851 407.16655352 -478.72141591 399.82334195 -478.7297433 392.48010033 C-478.73951786 384.00044667 -478.76584211 375.52105389 -478.80624419 367.04149216 C-478.83639242 360.48940867 -478.85121093 353.93740001 -478.85452431 347.38524848 C-478.85687627 343.47092962 -478.86585513 339.55688941 -478.89098549 335.64264488 C-478.91424896 331.95964563 -478.91850673 328.27710883 -478.90822411 324.59405518 C-478.90749189 322.59947251 -478.92659526 320.60491343 -478.94628906 318.61042786 C-478.93934525 317.42004913 -478.93240143 316.22967041 -478.92524719 315.0032196 C-478.92763555 313.97064372 -478.9300239 312.93806784 -478.93248463 311.87420177 C-478.30372057 308.30258172 -476.94255043 306.64003169 -474.4375 304.0625 C-470.25379112 302.15977293 -466.56988701 301.80695686 -462.00830078 301.7878418 C-460.75324738 301.77830978 -459.49819397 301.76877777 -458.20510864 301.75895691 C-456.84767631 301.75921839 -455.49024396 301.76015572 -454.1328125 301.76171875 C-452.72565587 301.75782632 -451.31850041 301.75349053 -449.91134644 301.74873352 C-446.96771429 301.74129109 -444.02420211 301.74154789 -441.08056641 301.74682617 C-437.32597542 301.75261434 -433.5718788 301.73569648 -429.81736946 301.7124815 C-426.91239598 301.69768042 -424.00753976 301.69688113 -421.10253525 301.69999123 C-419.7191762 301.69948108 -418.33581005 301.6943015 -416.95248795 301.68417931 C-402.30181107 301.59013157 -402.30181107 301.59013157 -396.4375 305.0625 C-394.4575 309.0225 -394.4575 309.0225 -392.4375 313.0625 C-382.8675 311.4125 -373.2975 309.7625 -363.4375 308.0625 C-367.3046875 304.288125 -367.3046875 304.288125 -371.25 300.4375 C-400.21400765 271.68898192 -416.44591358 235.61636096 -416.8125 194.5625 C-416.60368803 171.19513506 -411.75752974 147.18433961 -399.4375 127.0625 C-396.4375 125.0625 -396.4375 125.0625 -393.58984375 125.3359375 C-390.16878956 125.37252596 -390.16878956 125.37252596 -387.62890625 122.3515625 C-386.72458831 121.15080424 -385.84913511 119.92789546 -385 118.6875 C-384.54971436 118.04989746 -384.09942871 117.41229492 -383.63549805 116.75537109 C-381.09691867 112.8904362 -379.83563208 110.40681829 -380.75 105.6875 C-380.92789063 104.89859375 -381.10578125 104.1096875 -381.2890625 103.296875 C-381.49157769 100.24848849 -380.57956246 99.24013523 -378.625 96.9375 C-377.2682528 95.60483707 -375.86920341 94.31429024 -374.4375 93.0625 C-373.32955078 92.07636719 -373.32955078 92.07636719 -372.19921875 91.0703125 C-348.45391226 71.09471915 -320.39740861 64.68236685 -289.87353516 67.28076172 C-284.98017973 67.87405369 -280.21296874 68.85210558 -275.4375 70.0625 C-274.79087402 70.22347168 -274.14424805 70.38444336 -273.47802734 70.55029297 C-257.32018556 74.72717732 -241.81748135 82.10251388 -228.4375 92.0625 C-227.62667969 92.66320312 -226.81585938 93.26390625 -225.98046875 93.8828125 C-218.35892358 99.76827064 -211.42825248 106.45452647 -204.4375 113.0625 C-200.06914466 109.97883579 -196.15526862 106.85691889 -192.5 102.9375 C-179.76745394 89.94197537 -162.4806346 80.15792696 -145.4375 74.0625 C-145.41171875 73.093125 -145.3859375 72.12375 -145.359375 71.125 C-144.83332289 57.20215411 -142.85050241 39.55849482 -134.01953125 28.24609375 C-132.4375 27.0625 -132.4375 27.0625 -128.6875 26.9375 C-125.70973921 26.68570405 -124.67758564 26.29580902 -122.5 24.1796875 C-120.72351972 21.85954299 -119.08094902 19.47787205 -117.4375 17.0625 C-116.6125 16.19625 -115.7875 15.33 -114.9375 14.4375 C-113.04677306 12.0391705 -113.04677306 12.0391705 -114.0625 8.6875 C-114.50290459 4.4302556 -114.50290459 4.4302556 -112.375 1.625 C-83.73820534 -27.94199216 -30.38476604 -23.38017823 0 0 Z " fill="#020101" transform="translate(478.4375,21.9375)"/>
<path d="M0 0 C3.98598136 3.3992449 7.81805406 6.95149645 11.63671875 10.53662109 C12.80082759 11.62911762 13.96636963 12.72008891 15.13330078 13.80957031 C16.27140461 14.87333206 17.40539156 15.94152022 18.53466797 17.01464844 C22.33148344 20.56896443 24.86778273 22.91471131 30.125 23.125 C39.08065361 21.44819677 46.15121076 11.86609913 52.171875 5.69921875 C56.43791974 1.6276208 61.11282502 -1.70092057 66 -5 C68.91903854 -2.28263765 70.90989823 0.26717045 72.76953125 3.7890625 C73.50913086 5.18813843 73.50913086 5.18813843 74.26367188 6.61547852 C74.77478516 7.60862061 75.28589844 8.6017627 75.8125 9.625 C76.60817383 11.16401978 76.60817383 11.16401978 77.41992188 12.73413086 C90.26773224 37.9924711 97.71457097 65.66883907 98.4375 94.0625 C98.50614258 95.16948242 98.50614258 95.16948242 98.57617188 96.29882812 C98.68984693 101.95786893 97.05326039 105.08252763 93.73999023 109.59643555 C91.87193456 112.17690533 90.2733018 114.83038486 88.67578125 117.5859375 C87.84530273 119.01099609 87.84530273 119.01099609 86.99804688 120.46484375 C85.86124005 122.4275809 84.72585453 124.39114186 83.59179688 126.35546875 C83.04201172 127.29777344 82.49222656 128.24007812 81.92578125 129.2109375 C81.18968628 130.48396729 81.18968628 130.48396729 80.4387207 131.78271484 C79.11746653 133.81896639 77.78704868 135.37095358 76 137 C69.55096401 126.37805837 63.55895489 115.54680797 57.73059082 104.57336426 C51.74483937 93.30888782 45.53188882 82.18522702 39.18237305 71.12109375 C38 69 38 69 36.96801758 66.78515625 C36.12507215 64.82374982 36.12507215 64.82374982 34 64 C31.0842309 63.58297878 31.0842309 63.58297878 28 64 C24.64852089 66.80930375 22.6617671 69.99052335 20.53125 73.77734375 C19.88285156 74.92170898 19.23445312 76.06607422 18.56640625 77.24511719 C17.87750244 78.47585452 17.18870238 79.70664994 16.5 80.9375 C15.79102443 82.19340658 15.08138341 83.44893772 14.37109375 84.70410156 C12.93590745 87.24170745 11.50385551 89.78104109 10.07421875 92.32177734 C7.07561649 97.64610694 4.03713621 102.94758874 1 108.25 C0.02063333 109.96342737 -0.95855513 111.67695661 -1.9375 113.390625 C-2.625 114.59375 -3.3125 115.796875 -4 117 C-4.66 117 -5.32 117 -6 117 C-7.2175293 115.41455078 -7.2175293 115.41455078 -8.57421875 113.1953125 C-9.07348877 112.38819824 -9.57275879 111.58108398 -10.0871582 110.74951172 C-10.615271 109.88342285 -11.14338379 109.01733398 -11.6875 108.125 C-12.77750724 106.37949681 -13.86864467 104.63469884 -14.9609375 102.890625 C-16.36068411 100.64382143 -17.75880018 98.3968059 -19.13378906 96.13476562 C-22.70521916 90.00027242 -22.70521916 90.00027242 -28.75 86.8125 C-32.01144676 86.85878118 -32.01144676 86.85878118 -35 88 C-36.2520193 90.57918289 -37.07100062 93.21601705 -37.96582031 95.93847656 C-40.92486266 104.45708925 -44.76711073 114.33492211 -53 119 C-65.19211001 122.71313537 -79.52210242 121.18778491 -92.05580139 120.17131042 C-92.9253093 120.10825211 -93.7948172 120.04519379 -94.69067383 119.98022461 C-95.45293777 119.91290634 -96.21520172 119.84558807 -97.00056458 119.77622986 C-99.08856862 119.84164357 -99.08856862 119.84164357 -100.74589539 121.28248596 C-102.81763492 124.11976261 -102.36236633 126.61791424 -102 130 C-100.85869603 131.79321018 -100.85869603 131.79321018 -99 133 C-96.63012387 133.44093896 -96.63012387 133.44093896 -93.94946289 133.35644531 C-92.92152115 133.35944641 -91.89357941 133.36244751 -90.83448792 133.36553955 C-89.72508347 133.35319275 -88.61567902 133.34084595 -87.47265625 133.328125 C-86.33219345 133.32625183 -85.19173065 133.32437866 -84.01670837 133.32244873 C-81.60331299 133.31572213 -79.18992863 133.3017957 -76.77661133 133.28125 C-73.08078891 133.25015388 -69.38539328 133.24028496 -65.68945312 133.234375 C-63.34634897 133.22520257 -61.00324915 133.21482604 -58.66015625 133.203125 C-57.55277603 133.19887512 -56.44539581 133.19462524 -55.30445862 133.19024658 C-54.27336472 133.18063904 -53.24227081 133.17103149 -52.17993164 133.16113281 C-51.27408829 133.15430481 -50.36824493 133.14747681 -49.43495178 133.14044189 C-47.11958376 133.00689729 -45.18045193 132.79106214 -43 132 C-41.84204851 129.68304117 -41.84204851 129.68304117 -41 127 C-40.16713908 125.50509193 -39.29880614 124.02946573 -38.3984375 122.57421875 C-37.66367187 121.38022461 -37.66367187 121.38022461 -36.9140625 120.16210938 C-36.40617188 119.34548828 -35.89828125 118.52886719 -35.375 117.6875 C-34.859375 116.85154297 -34.34375 116.01558594 -33.8125 115.15429688 C-32.54512996 113.10068801 -31.27421427 111.04936659 -30 109 C-26.12967462 110.29010846 -25.67607952 111.71338754 -23.6015625 115.171875 C-22.95703125 116.22890625 -22.3125 117.2859375 -21.6484375 118.375 C-20.98070312 119.48875 -20.31296875 120.6025 -19.625 121.75 C-18.31121181 123.93622566 -16.99108399 126.11865646 -15.6640625 128.296875 C-15.08092285 129.26979492 -14.4977832 130.24271484 -13.89697266 131.24511719 C-11.84969756 134.21827705 -9.69543018 136.60129955 -7 139 C-3.78949624 139.45864339 -2.09213585 139.03071195 1 138 C1.73339179 136.36159873 2.38771832 134.68740433 3 133 C4.07193307 131.00132909 5.17819386 129.02088231 6.30859375 127.0546875 C6.63154922 126.49095428 6.9545047 125.92722107 7.2872467 125.34640503 C8.3341975 123.52078312 9.3857593 121.6978659 10.4375 119.875 C11.15910816 118.61896099 11.88046081 117.36277516 12.6015625 116.10644531 C14.72962142 112.40154899 16.86392951 108.70028163 19 105 C19.60344238 103.95424805 20.20688477 102.90849609 20.82861328 101.83105469 C23.87818559 96.54963274 26.93515475 91.27257275 30 86 C32.56669964 88.3193409 34.06628188 90.6846946 35.6796875 93.734375 C36.18959229 94.68908691 36.69949707 95.64379883 37.22485352 96.62744141 C38.04167603 98.17310791 38.04167603 98.17310791 38.875 99.75 C43.84954532 109.05477392 48.94386841 118.27658142 54.16870117 127.44287109 C56.96847088 132.36770563 59.7244519 137.31088071 62.4140625 142.296875 C62.96376709 143.31571777 63.51347168 144.33456055 64.07983398 145.38427734 C65.13126107 147.3402351 66.17785407 149.29880112 67.21899414 151.26025391 C67.68684326 152.13085449 68.15469238 153.00145508 68.63671875 153.8984375 C69.04623779 154.66849121 69.45575684 155.43854492 69.87768555 156.23193359 C70.88754051 158.15854907 70.88754051 158.15854907 73 159 C77.25202163 159.48794432 77.25202163 159.48794432 80.875 157.5234375 C83.79531345 154.05556528 85.90839408 150.25569066 88.125 146.3125 C88.99775635 144.76418444 89.87513692 143.2184635 90.7578125 141.67578125 C91.1408252 140.99427002 91.52383789 140.31275879 91.91845703 139.6105957 C93 138 93 138 95 137 C92.51889005 162.8035435 81.1454696 188.53126276 67 210 C63.25120362 208.75040121 61.79032462 206.79032462 59 204 C47.43562077 193.94401806 29.71163677 192.23965412 15.125 189.6875 C14.12966248 189.51157318 13.13432495 189.33564636 12.10882568 189.15438843 C-3.06500361 186.50504045 -17.57633165 184.61169739 -33 186 C-33.83112305 186.06622559 -34.66224609 186.13245117 -35.51855469 186.20068359 C-52.25463395 187.65244875 -68.86829065 191.20342468 -85.37597656 194.21875 C-86.8162471 194.480616 -86.8162471 194.480616 -88.28561401 194.74777222 C-90.09318423 195.07699619 -91.90029079 195.40878092 -93.70681763 195.74368286 C-95.34565869 196.041957 -96.98670251 196.32843125 -98.62991333 196.60160828 C-100.22785168 196.87020833 -101.8206675 197.17100405 -103.4069519 197.50154114 C-107.6860976 198.25543218 -109.33486947 198.41473757 -113.14208984 196.04077148 C-114.10773403 195.09336556 -115.0465583 194.11806785 -115.9609375 193.12109375 C-116.73022835 192.34329056 -116.73022835 192.34329056 -117.51506042 191.54977417 C-119.16219931 189.86973845 -120.76865674 188.15650717 -122.375 186.4375 C-123.49598694 185.2717526 -124.61830534 184.10728409 -125.74194336 182.9440918 C-136.92520859 171.28072372 -146.52978499 159.39215735 -154 145 C-154.68835938 143.68515625 -154.68835938 143.68515625 -155.390625 142.34375 C-158.20065326 136.58141357 -160.22488842 130.59076091 -162.1875 124.5 C-162.43773926 123.72889893 -162.68797852 122.95779785 -162.94580078 122.16333008 C-166.22317663 111.63650521 -167.3304415 101.66822431 -167.26074219 90.63964844 C-167.25005042 88.63445551 -167.26068449 86.63016544 -167.2734375 84.625 C-167.23811514 66.71656579 -163.66153819 50.09583971 -156.28637695 33.80957031 C-154.48417309 29.72084178 -153.48276744 26.56661908 -154 22 C-155.37506099 20.12109566 -155.37506099 20.12109566 -157 19 C-155.56218564 14.94595643 -153.61127216 11.69173642 -151.125 8.1875 C-150.44695312 7.21167969 -149.76890625 6.23585937 -149.0703125 5.23046875 C-148.38710937 4.49441406 -147.70390625 3.75835937 -147 3 C-145.68 3 -144.36 3 -143 3 C-137.33149192 2.63886638 -134.88501528 1.55386673 -130.9375 -2.5 C-94.0250751 -37.7506104 -37.64359951 -30.45129391 0 0 Z " fill="#FC7F86" transform="translate(245,130)"/>
<path d="M0 0 C2.68627331 2.68627331 3.46307894 5.80108323 4.6875 9.3125 C13.58016519 33.71454364 29.85408699 51.59544689 53.35546875 62.56640625 C74.69706295 71.27460851 98.83088349 71.84743626 120.3125 63.25 C121.31925781 62.80140625 122.32601563 62.3528125 123.36328125 61.890625 C126.14576616 60.95076343 127.30703086 60.95095739 130 62 C130.63137175 64.41515018 131.25508812 66.831904 131.875 69.25 C132.04902344 69.91257812 132.22304688 70.57515625 132.40234375 71.2578125 C135.19515015 82.22216356 136.35065677 92.88870369 136.31567383 104.18041992 C136.31251884 106.29984327 136.33605512 108.41785761 136.36132812 110.53710938 C136.41961022 122.92479262 134.63277501 134.75614103 130.3125 146.4375 C130.05758789 147.13721924 129.80267578 147.83693848 129.54003906 148.55786133 C123.56250187 164.47475023 115.23377546 178.51030145 103.62890625 190.96875 C103.11777786 191.51979904 102.60664948 192.07084808 102.08003235 192.63859558 C95.46717794 199.71159499 88.56888159 206.5025956 81.6875 213.3125 C79.06337828 215.90973063 76.44281765 218.51048376 73.82421875 221.11328125 C73.24177902 221.68742264 72.65933929 222.26156403 72.05924988 222.85310364 C69.11605645 225.77897841 66.30300846 228.76301563 63.59301758 231.90698242 C59.82118121 236.26842265 55.78647661 240.32265926 51.6875 244.375 C50.5286731 245.52814697 50.5286731 245.52814697 49.34643555 246.70458984 C46.07623964 249.9585983 42.8000651 253.20656266 39.52441406 256.45507812 C37.11834715 258.84295352 34.71536962 261.23390793 32.3125 263.625 C31.58313232 264.34606934 30.85376465 265.06713867 30.10229492 265.81005859 C25.52036521 270.37029306 21.19715173 275.08442882 17 280 C-3.27142274 303.52363341 -3.27142274 303.52363341 -19.9453125 304.8359375 C-21.62990162 304.89937391 -23.31483515 304.95434771 -25 305 C-26.53911981 305.0954344 -28.0781848 305.19175781 -29.6171875 305.2890625 C-37.18048425 305.61771062 -44.53779643 304.91531092 -52.00390625 303.74609375 C-52.85562408 303.6150827 -53.70734192 303.48407166 -54.58486938 303.34909058 C-64.64392758 301.77783979 -74.67249649 300.0354826 -84.68701172 298.203125 C-86.83599003 297.81341902 -88.98643931 297.43174959 -91.13818359 297.05761719 C-94.30140885 296.50703627 -97.45933535 295.9320725 -100.6171875 295.3515625 C-102.05153641 295.10909286 -102.05153641 295.10909286 -103.51486206 294.86172485 C-109.39655715 293.74493726 -112.79555006 292.31672738 -117 288 C-118.43304064 285.13391871 -118.30644155 283.18699217 -118 280 C-114.84210526 274.42105263 -114.84210526 274.42105263 -112 273 C-103.76149023 272.27000546 -95.56189628 273.73527239 -87.4375 274.9375 C-57.00679738 280.30969183 -57.00679738 280.30969183 -28.5 271.25 C-21.64756826 265.49627039 -18.67827682 258.34449702 -17.74609375 249.625 C-17.40873253 242.66012322 -19.06371892 235.78454006 -23.40625 230.1875 C-24 228 -24 228 -22.2890625 224.5234375 C-21.41287757 223.13309532 -20.5239045 221.75076237 -19.625 220.375 C-8.75054423 202.80725987 4 177.13646005 4 156 C3.65219482 156.59538574 3.30438965 157.19077148 2.94604492 157.80419922 C1.36680895 160.49860781 -0.22269394 163.18681581 -1.8125 165.875 C-2.35970703 166.81214844 -2.90691406 167.74929688 -3.47070312 168.71484375 C-4.26831055 170.05869141 -4.26831055 170.05869141 -5.08203125 171.4296875 C-5.56905518 172.25710449 -6.0560791 173.08452148 -6.55786133 173.93701172 C-8 176 -8 176 -11 178 C-13.875 178.4375 -13.875 178.4375 -17 178 C-20.85906155 174.66710489 -23.19925394 171.2618313 -25.53125 166.7578125 C-25.84412964 166.16121323 -26.15700928 165.56461395 -26.47937012 164.94993591 C-27.14772617 163.67376137 -27.81205916 162.39547298 -28.47265625 161.11526489 C-30.22300159 157.72433476 -32.00354332 154.34929893 -33.78125 150.97265625 C-34.13751465 150.29422165 -34.4937793 149.61578705 -34.86083984 148.91679382 C-38.11938662 142.72928576 -41.53043478 136.63410997 -45 130.5625 C-49.81943567 122.11836581 -54.49475814 113.61576465 -59 105 C-63.96852267 112.09591926 -68.16332657 119.52827348 -72.3125 127.125 C-80.91450964 142.74816531 -80.91450964 142.74816531 -85.25 150.0625 C-85.91515625 151.18785156 -86.5803125 152.31320312 -87.265625 153.47265625 C-89 156 -89 156 -92 158 C-95.4375 157.9375 -95.4375 157.9375 -99 157 C-103.0261566 152.70941362 -105.95796108 147.47488077 -109.0625 142.5 C-109.59166016 141.65824219 -110.12082031 140.81648437 -110.66601562 139.94921875 C-112.75034577 136.62788966 -114.81843363 133.32170149 -116.74609375 129.90625 C-117.36677734 128.96265625 -117.36677734 128.96265625 -118 128 C-118.66 128 -119.32 128 -120 128 C-121.45762809 130.07223993 -121.45762809 130.07223993 -122.8984375 132.7421875 C-123.46046875 133.72574219 -124.0225 134.70929688 -124.6015625 135.72265625 C-125.77863838 137.81494752 -126.95314249 139.9086878 -128.125 142.00390625 C-128.68960938 142.99003906 -129.25421875 143.97617188 -129.8359375 144.9921875 C-130.34688965 145.90339355 -130.8578418 146.81459961 -131.38427734 147.75341797 C-133.18455397 150.25661312 -134.17200415 150.8827546 -137 152 C-139.42822266 152.26742554 -139.42822266 152.26742554 -142.1640625 152.29052734 C-143.19192871 152.30328705 -144.21979492 152.31604675 -145.27880859 152.32919312 C-146.38305176 152.33141876 -147.48729492 152.33364441 -148.625 152.3359375 C-149.76404785 152.3425943 -150.9030957 152.3492511 -152.07666016 152.35610962 C-154.48403305 152.36623104 -156.89143397 152.3709268 -159.29882812 152.37060547 C-162.9861449 152.37498355 -166.6722696 152.41132405 -170.359375 152.44921875 C-172.69791257 152.45508592 -175.03645583 152.45905598 -177.375 152.4609375 C-178.47924316 152.47530853 -179.58348633 152.48967957 -180.72119141 152.50448608 C-181.74905762 152.49833282 -182.77692383 152.49217957 -183.8359375 152.48583984 C-184.73876465 152.48868988 -185.6415918 152.49153992 -186.57177734 152.49447632 C-189.80217778 151.83664681 -190.99404581 150.56939428 -193 148 C-193.53853189 144.23027674 -193.64931861 142.02903644 -191.59350586 138.77099609 C-187.53860964 136.00207797 -183.76451221 136.81773186 -179.00390625 137.1640625 C-158.64777658 139.11615854 -158.64777658 139.11615854 -139.64355469 133.93994141 C-135.02108207 128.91988726 -132.77342125 123.17802656 -130.87841797 116.69873047 C-129.15413797 111.40128993 -126.64488367 107.09658911 -122 104 C-118.46446052 103.79602657 -116.0949684 104.02610984 -113.375 106.4453125 C-106.84268846 114.4536752 -99.28595542 125.14213373 -96 135 C-95.34 135 -94.68 135 -94 135 C-93.73300293 134.29238525 -93.46600586 133.58477051 -93.19091797 132.85571289 C-91.94928686 129.87839451 -90.50828545 127.13017613 -88.9453125 124.30859375 C-88.3359082 123.20765381 -87.72650391 122.10671387 -87.09863281 120.97241211 C-86.44119819 119.79386085 -85.78331143 118.61556172 -85.125 117.4375 C-84.79318726 116.84228546 -84.46137451 116.24707092 -84.11950684 115.63381958 C-79.58902505 107.51423183 -74.99482094 99.43423011 -70.25 91.4375 C-69.76160645 90.60597412 -69.27321289 89.77444824 -68.77001953 88.91772461 C-68.08721924 87.78089233 -68.08721924 87.78089233 -67.390625 86.62109375 C-66.99907227 85.9655249 -66.60751953 85.30995605 -66.20410156 84.63452148 C-65 83 -65 83 -62 81 C-59.0625 80.625 -59.0625 80.625 -56 81 C-52.89156372 83.64356695 -51.01343807 86.42187316 -49.1171875 90.0078125 C-48.33432373 91.47311401 -48.33432373 91.47311401 -47.53564453 92.96801758 C-46.98763184 94.00982178 -46.43961914 95.05162598 -45.875 96.125 C-44.70388303 98.31941513 -43.53200257 100.51342297 -42.359375 102.70703125 C-41.49795898 104.32472412 -41.49795898 104.32472412 -40.61914062 105.97509766 C-38.49479712 109.94382746 -36.32055295 113.88283235 -34.125 117.8125 C-33.55458984 118.83537109 -33.55458984 118.83537109 -32.97265625 119.87890625 C-32.1429028 121.36655483 -31.3128056 122.85401172 -30.48242188 124.34130859 C-27.62030201 129.47445836 -24.76883683 134.61353954 -21.91546631 139.7515564 C-20.25386418 142.7434052 -18.59175384 145.73497156 -16.9296875 148.7265625 C-15.953125 150.484375 -14.9765625 152.2421875 -14 154 C-11.38967645 150.67318694 -9.19560428 147.13957182 -7.0234375 143.51953125 C-6.65272125 142.90607346 -6.282005 142.29261566 -5.90005493 141.66056824 C-4.72302218 139.71241942 -3.54877502 137.76261309 -2.375 135.8125 C-1.19384145 133.85182482 -0.01206151 131.89153553 1.17147827 129.93229675 C1.90634718 128.71565235 2.63980782 127.49815601 3.37173462 126.27973938 C5.88770803 122.11229197 5.88770803 122.11229197 7 121 C7.53313251 109.86620952 6.92559645 98.98584168 5 88 C4.87109375 87.23961426 4.7421875 86.47922852 4.609375 85.69580078 C0.51362041 61.98877684 -7.83708199 40.47313922 -19.85058594 19.66015625 C-23 14.18764729 -23 14.18764729 -23 12 C-20.48168311 10.55793859 -17.96052215 9.12128792 -15.4375 7.6875 C-14.73302734 7.28337891 -14.02855469 6.87925781 -13.30273438 6.46289062 C-8.96054712 4.00165085 -4.62520133 1.87803838 0 0 Z " fill="#FD626D" transform="translate(335,112)"/>
<path d="M0 0 C0.80644455 0.1595668 1.6128891 0.31913361 2.44377136 0.48353577 C15.14505712 3.09644176 24.45475504 6.29141077 32.46875 17.04296875 C33.84928273 21.18456694 34.29868541 24.72590978 33.46875 29.04296875 C30.91717889 33.67419029 27.38380565 37.04710175 22.46875 39.04296875 C9.3075723 42.23382027 -5.10067402 39.31512704 -18.28125 37.54296875 C-38.66516003 33.4468754 -38.66516003 33.4468754 -57.53125 39.04296875 C-63.60345011 44.49414839 -66.54871023 50.80368153 -67.03125 58.91796875 C-66.79880757 65.48699395 -64.228975 70.99921726 -59.88671875 75.8984375 C-53.12701745 82.07829987 -45.35941595 83.68601589 -36.578125 85.19921875 C-35.52328918 85.38762329 -34.46845337 85.57602783 -33.38165283 85.7701416 C-30.01619958 86.36900407 -26.64878601 86.9559449 -23.28125 87.54296875 C-21.06497337 87.93676461 -18.84882615 88.33128948 -16.6328125 88.7265625 C-10.26978033 89.85668225 -3.90230071 90.95901022 2.46875 92.04296875 C3.86199493 92.28043823 3.86199493 92.28043823 5.28338623 92.52270508 C18.36206824 94.80755529 18.36206824 94.80755529 31.59375 95.54296875 C32.88829102 95.53438843 32.88829102 95.53438843 34.20898438 95.52563477 C44.28950206 95.25851184 53.92735842 93.00738162 63.73730469 90.83886719 C70.20682168 89.45895189 76.71082154 88.26259683 83.21340942 87.04995728 C87.1759347 86.3100224 91.13669996 85.56077994 95.09765625 84.8125 C95.87981003 84.66489731 96.66196381 84.51729462 97.46781921 84.36521912 C104.83125028 82.97553901 112.1941839 81.5834248 119.55340576 80.17160034 C121.45914249 79.80677276 123.36554568 79.44543185 125.27197266 79.08422852 C131.84067964 77.82052838 138.31293721 76.38788523 144.7722168 74.64526367 C151.86557821 73.06089766 158.45027916 73.11361524 164.80859375 76.84765625 C167.35876353 78.68377849 168.93134437 80.28845032 170.46875 83.04296875 C171.22437948 88.04901404 170.13756599 91.51696891 168.02734375 95.953125 C162.67200542 103.13384181 155.89297397 105.80701091 147.59375 108.60546875 C146.57539063 108.96576172 145.55703125 109.32605469 144.5078125 109.69726562 C138.70044413 111.72050102 132.84869715 113.54018174 126.94140625 115.24609375 C114.79077174 118.75988856 102.77517772 122.70830531 90.74079132 126.59753799 C88.76151533 127.23684304 86.7819066 127.87510711 84.80218506 128.51303101 C70.20656182 133.21636786 55.62320017 137.95082986 41.09375 142.85546875 C26.08883368 147.91500591 10.91430969 152.51182928 -4.53125 156.04296875 C-5.2634375 156.22472656 -5.995625 156.40648437 -6.75 156.59375 C-22.13593815 159.07883832 -36.76290308 156.22093293 -51.53125 152.04296875 C-53.04645426 151.62996371 -54.56206522 151.21844718 -56.078125 150.80859375 C-59.01905753 150.0069656 -61.95444689 149.18820435 -64.88671875 148.35546875 C-70.0082453 146.90192864 -75.14400458 145.50226877 -80.28125 144.10546875 C-82.15104227 143.59635639 -84.02083393 143.08724179 -85.890625 142.578125 C-86.82326172 142.32434082 -87.75589844 142.07055664 -88.71679688 141.80908203 C-93.32209912 140.55548744 -97.92664098 139.29910675 -102.53125 138.04296875 C-104.36457958 137.54295497 -106.19791291 137.04295498 -108.03125 136.54296875 C-119.03125 133.54296875 -119.03125 133.54296875 -121.78027344 132.79321289 C-123.61684696 132.29234402 -125.45343555 131.79153037 -127.29003906 131.29077148 C-131.82392151 130.0545136 -136.35755319 128.81735226 -140.890625 127.578125 C-142.68748847 127.08719739 -144.4843635 126.59631207 -146.28125 126.10546875 C-147.16393555 125.86417236 -148.04662109 125.62287598 -148.95605469 125.37426758 C-154.17526433 123.95004099 -159.3983475 122.54121207 -164.625 121.14453125 C-166.41019043 120.66681274 -166.41019043 120.66681274 -168.23144531 120.17944336 C-170.56362502 119.55597826 -172.89629387 118.9343395 -175.22949219 118.31469727 C-176.80972168 117.89208618 -176.80972168 117.89208618 -178.421875 117.4609375 C-179.36063477 117.21110107 -180.29939453 116.96126465 -181.26660156 116.70385742 C-183.53125 116.04296875 -183.53125 116.04296875 -185.53125 115.04296875 C-185.53125 82.04296875 -185.53125 49.04296875 -185.53125 15.04296875 C-150.53125 9.04296875 -150.53125 9.04296875 -136.53125 7.04296875 C-132.48853327 6.38418695 -128.45056026 5.71368913 -124.4140625 5.01953125 C-123.31440155 4.83208344 -122.2147406 4.64463562 -121.08175659 4.45150757 C-117.60628405 3.85875675 -114.13124903 3.26348857 -110.65625 2.66796875 C-108.36982309 2.27715984 -106.08336493 1.88653378 -103.796875 1.49609375 C-102.66963516 1.30358032 -101.54239532 1.11106689 -100.3809967 0.91271973 C-96.99046302 0.33440224 -93.59961579 -0.24205019 -90.20874023 -0.81835938 C-85.77157077 -1.57271338 -81.33655122 -2.33836719 -76.90258789 -3.11132812 C-74.79315943 -3.47412071 -72.6837042 -3.83675771 -70.57421875 -4.19921875 C-69.63325348 -4.36586029 -68.69228821 -4.53250183 -67.72280884 -4.70419312 C-44.51259607 -8.65941365 -22.78130798 -4.55251716 0 0 Z " fill="#FDD0A2" transform="translate(269.53125,335.95703125)"/>
<path d="M0 0 C7.44464347 6.48241064 13.19772756 13.39120191 18 22 C18.46019531 22.78761719 18.92039062 23.57523438 19.39453125 24.38671875 C28.25099025 40.57450635 29.76801876 59.80770328 24.9375 77.5 C18.66192844 98.36616151 5.22780916 113.81289686 -13.60546875 124.2734375 C-30.61701977 132.92603307 -49.99858269 135.06973254 -68.34375 129.38671875 C-89.55011649 121.34370582 -104.75593903 108.37429904 -115 88 C-119.19103089 78.39038776 -121.39560238 68.85440243 -121.375 58.375 C-121.37338867 57.50834717 -121.37177734 56.64169434 -121.37011719 55.7487793 C-121.1686688 45.02560283 -118.38592206 35.46053152 -113.75390625 25.796875 C-112.23342535 22.17293088 -112.79556576 19.61330273 -114 16 C-114.66 16 -115.32 16 -116 16 C-115.63174813 10.91057027 -112.83539792 8.17872345 -109.4375 4.6875 C-108.91736328 4.13771484 -108.39722656 3.58792969 -107.86132812 3.02148438 C-106.58291183 1.67269654 -105.29260567 0.33519564 -104 -1 C-103.443125 -0.67 -102.88625 -0.34 -102.3125 0 C-99.50757115 1.21294221 -98.0363535 1.44076099 -95 1 C-92.66744167 -0.32178305 -90.55767681 -1.6558287 -88.375 -3.1875 C-60.93878732 -21.47115802 -26.27192892 -20.28842776 0 0 Z " fill="#D4DAE7" transform="translate(470,35)"/>
<path d="M0 0 C4.0101807 2.57016127 7.46060967 5.82137398 11 9 C11.79148437 9.69609375 12.58296875 10.3921875 13.3984375 11.109375 C25.23925438 22.16080409 36.30425825 40.66275042 37.109375 57.25390625 C37.12270137 59.16957144 37.06837468 61.08550905 37 63 C33.37 63 29.74 63 26 63 C25.97421875 61.31390625 25.9484375 59.6278125 25.921875 57.890625 C25.86559786 55.67705731 25.80825044 53.46351664 25.75 51.25 C25.73582031 50.13882813 25.72164063 49.02765625 25.70703125 47.8828125 C25.67480469 46.81289062 25.64257812 45.74296875 25.609375 44.640625 C25.5779541 43.16384277 25.5779541 43.16384277 25.54589844 41.65722656 C24.85553025 38.29677605 23.68038863 37.08474671 21 35 C17.95746492 34.41654524 17.95746492 34.41654524 15 35 C12.96332385 36.54506466 12.13926922 37.72146156 11 40 C10.84733388 41.73868744 10.75067404 43.48247501 10.68359375 45.2265625 C10.64169922 46.2578125 10.59980469 47.2890625 10.55664062 48.3515625 C10.51732422 49.43179688 10.47800781 50.51203125 10.4375 51.625 C10.37272461 53.25695312 10.37272461 53.25695312 10.30664062 54.921875 C10.2003547 57.6144517 10.09831943 60.30712253 10 63 C8.94087402 63.01401855 8.94087402 63.01401855 7.86035156 63.02832031 C4.65619455 63.08205659 1.45349243 63.16569757 -1.75 63.25 C-2.86117187 63.26417969 -3.97234375 63.27835938 -5.1171875 63.29296875 C-6.18710937 63.32519531 -7.25703125 63.35742188 -8.359375 63.390625 C-9.34389648 63.41157227 -10.32841797 63.43251953 -11.34277344 63.45410156 C-14.71549026 64.14698973 -15.95240419 65.26702668 -18 68 C-17.85718492 73.05692899 -17.85718492 73.05692899 -15 77 C-12.28384136 77.37207354 -12.28384136 77.37207354 -9.1171875 77.4140625 C-7.36728516 77.47207031 -7.36728516 77.47207031 -5.58203125 77.53125 C-4.35871094 77.5621875 -3.13539063 77.593125 -1.875 77.625 C-0.64394531 77.66367188 0.58710938 77.70234375 1.85546875 77.7421875 C4.90349376 77.8366999 7.95150862 77.92225494 11 78 C11.01458252 78.77190674 11.02916504 79.54381348 11.04418945 80.33911133 C11.11858033 83.83075093 11.2152709 87.3214249 11.3125 90.8125 C11.33505859 92.02744141 11.35761719 93.24238281 11.38085938 94.49414062 C11.41630859 95.65751953 11.45175781 96.82089844 11.48828125 98.01953125 C11.51446533 99.09307861 11.54064941 100.16662598 11.56762695 101.27270508 C11.78915777 104.004184 11.78915777 104.004184 13.34448242 105.8503418 C15.93475068 107.64912859 17.94135691 107.38233039 21 107 C23.03667615 105.45493534 23.86073078 104.27853844 25 102 C25.15266612 100.26131256 25.24932596 98.51752499 25.31640625 96.7734375 C25.35830078 95.7421875 25.40019531 94.7109375 25.44335938 93.6484375 C25.48267578 92.56820312 25.52199219 91.48796875 25.5625 90.375 C25.62727539 88.74304688 25.62727539 88.74304688 25.69335938 87.078125 C25.79964427 84.3855743 25.90034504 81.69280424 26 79 C29.63 79 33.26 79 37 79 C34.89143989 100.55820938 24.37964457 118.19554763 8.24609375 132.4296875 C5.8713687 134.36202711 3.49826317 136.23075219 1 138 C-0.19496094 138.87978516 -0.19496094 138.87978516 -1.4140625 139.77734375 C-4.80888321 141.3824478 -6.41644823 141.01996899 -10 140 C-29.23096049 131.70525966 -43.03687627 116.96574227 -51.3203125 97.97265625 C-54.63577632 89.21737587 -56.39341108 80.73979682 -56.375 71.375 C-56.37338867 70.50834717 -56.37177734 69.64169434 -56.37011719 68.7487793 C-56.1686688 58.02560283 -53.38592206 48.46053152 -48.75390625 38.796875 C-47.23342535 35.17293088 -47.79556576 32.61330273 -49 29 C-49.66 29 -50.32 29 -51 29 C-50.63174813 23.91057027 -47.83539792 21.17872345 -44.4375 17.6875 C-43.91736328 17.13771484 -43.39722656 16.58792969 -42.86132812 16.02148438 C-41.58291183 14.67269654 -40.29260567 13.33519564 -39 12 C-38.443125 12.33 -37.88625 12.66 -37.3125 13 C-34.50757115 14.21294221 -33.0363535 14.44076099 -30 14 C-27.66748447 12.6782412 -25.55700691 11.34512524 -23.375 9.8125 C-7.2006578 -1.04939819 -7.2006578 -1.04939819 0 0 Z " fill="#F6F0EE" transform="translate(405,22)"/>
<path d="M0 0 C17.82 0 35.64 0 54 0 C54 40.59 54 81.18 54 123 C36.18 123 18.36 123 0 123 C0 82.41 0 41.82 0 0 Z " fill="#99E6FC" transform="translate(15,340)"/>
<path d="M0 0 C3.10843628 2.64356695 4.98656193 5.42187316 6.8828125 9.0078125 C7.66567627 10.47311401 7.66567627 10.47311401 8.46435547 11.96801758 C9.01236816 13.00982178 9.56038086 14.05162598 10.125 15.125 C11.29611697 17.31941513 12.46799743 19.51342297 13.640625 21.70703125 C14.21490234 22.78549316 14.78917969 23.86395508 15.38085938 24.97509766 C17.50520288 28.94382746 19.67944705 32.88283235 21.875 36.8125 C22.44541016 37.83537109 22.44541016 37.83537109 23.02734375 38.87890625 C23.8570972 40.36655483 24.6871944 41.85401172 25.51757812 43.34130859 C28.37969799 48.47445836 31.23116317 53.61353954 34.08453369 58.7515564 C35.74613582 61.7434052 37.40824616 64.73497156 39.0703125 67.7265625 C40.046875 69.484375 41.0234375 71.2421875 42 73 C44.5929246 69.69785206 46.76120998 66.19053114 48.90625 62.58984375 C49.65743073 61.34042183 50.40873659 60.09107512 51.16015625 58.84179688 C52.33357053 56.88536841 53.50559324 54.92813418 54.67529297 52.96948242 C55.81096787 51.0697864 56.95200576 49.17339638 58.09375 47.27734375 C59.10985352 45.57952759 59.10985352 45.57952759 60.14648438 43.84741211 C62.94762223 39.54424157 62.94762223 39.54424157 65 38 C67.90866089 37.61231995 67.90866089 37.61231995 71.50341797 37.59594727 C72.15906738 37.58908401 72.8147168 37.58222076 73.49023438 37.57514954 C75.65777241 37.55684792 77.82458876 37.56072416 79.9921875 37.56640625 C81.50050085 37.56184526 83.00881212 37.55653993 84.51712036 37.55052185 C87.6796309 37.54158362 90.84188903 37.54402088 94.00439453 37.55395508 C98.05208679 37.56543227 102.09890505 37.54525714 106.14648247 37.51603794 C109.26239537 37.49766496 112.37809939 37.49797074 115.49405289 37.50367546 C116.98595529 37.50382862 118.47787191 37.49778893 119.96972275 37.48538399 C122.05963147 37.47045782 124.14793355 37.48116076 126.23779297 37.49829102 C128.0195845 37.49854027 128.0195845 37.49854027 129.83737183 37.49879456 C133.658889 38.10441909 135.32733315 39.23771243 138 42 C138.625 45.5 138.625 45.5 138 49 C135.4125679 51.63159512 133.75100485 52.87616098 130.08293152 53.48101807 C129.01037613 53.47213562 127.93782074 53.46325317 126.83276367 53.45410156 C125.00143135 53.45364838 125.00143135 53.45364838 123.13310242 53.45318604 C121.82460831 53.43254089 120.5161142 53.41189575 119.16796875 53.390625 C117.80748834 53.38315847 116.44699712 53.37746748 115.08650208 53.37347412 C111.51716066 53.35824978 107.94847718 53.31899711 104.37939453 53.2746582 C100.73283792 53.23363546 97.0861743 53.21544826 93.43945312 53.1953125 C86.29270067 53.15249861 79.14639344 53.08428714 72 53 C71.55735809 54.1419986 71.55735809 54.1419986 71.10577393 55.30706787 C69.76837651 58.56408125 68.07813161 61.47823211 66.296875 64.515625 C65.93660217 65.1308905 65.57632935 65.74615601 65.20513916 66.38006592 C64.44361159 67.67867819 63.68037336 68.97628865 62.91552734 70.27294922 C61.76328156 72.22747088 60.61756565 74.18570521 59.47265625 76.14453125 C48.17394989 95.41302505 48.17394989 95.41302505 45 97 C42.1875 97.375 42.1875 97.375 39 97 C35.13563315 93.67387337 32.80012076 90.26062359 30.46875 85.7578125 C30.15587036 85.16121323 29.84299072 84.56461395 29.52062988 83.94993591 C28.85227383 82.67376137 28.18794084 81.39547298 27.52734375 80.11526489 C25.77699841 76.72433476 23.99645668 73.34929893 22.21875 69.97265625 C21.86248535 69.29422165 21.5062207 68.61578705 21.13916016 67.91679382 C17.88061338 61.72928576 14.46956522 55.63410997 11 49.5625 C6.18056433 41.11836581 1.50524186 32.61576465 -3 24 C-7.96852267 31.09591926 -12.16332657 38.52827348 -16.3125 46.125 C-24.91450964 61.74816531 -24.91450964 61.74816531 -29.25 69.0625 C-29.91515625 70.18785156 -30.5803125 71.31320312 -31.265625 72.47265625 C-33 75 -33 75 -36 77 C-39.4375 76.9375 -39.4375 76.9375 -43 76 C-47.0261566 71.70941362 -49.95796108 66.47488077 -53.0625 61.5 C-53.59166016 60.65824219 -54.12082031 59.81648438 -54.66601562 58.94921875 C-56.75034577 55.62788966 -58.81843363 52.32170149 -60.74609375 48.90625 C-61.15988281 48.2771875 -61.57367188 47.648125 -62 47 C-62.66 47 -63.32 47 -64 47 C-65.45762809 49.07223993 -65.45762809 49.07223993 -66.8984375 51.7421875 C-67.46046875 52.72574219 -68.0225 53.70929688 -68.6015625 54.72265625 C-69.77863838 56.81494752 -70.95314249 58.9086878 -72.125 61.00390625 C-72.68960938 61.99003906 -73.25421875 62.97617188 -73.8359375 63.9921875 C-74.34688965 64.90339355 -74.8578418 65.81459961 -75.38427734 66.75341797 C-77.18455397 69.25661312 -78.17200415 69.8827546 -81 71 C-83.42822266 71.26742554 -83.42822266 71.26742554 -86.1640625 71.29052734 C-87.19192871 71.30328705 -88.21979492 71.31604675 -89.27880859 71.32919312 C-90.38305176 71.33141876 -91.48729492 71.33364441 -92.625 71.3359375 C-93.76404785 71.3425943 -94.9030957 71.3492511 -96.07666016 71.35610962 C-98.48403305 71.36623104 -100.89143397 71.3709268 -103.29882812 71.37060547 C-106.9861449 71.37498355 -110.6722696 71.41132405 -114.359375 71.44921875 C-116.69791257 71.45508592 -119.03645583 71.45905598 -121.375 71.4609375 C-123.03136475 71.48249405 -123.03136475 71.48249405 -124.72119141 71.50448608 C-125.74905762 71.49833282 -126.77692383 71.49217957 -127.8359375 71.48583984 C-129.19017822 71.4901149 -129.19017822 71.4901149 -130.57177734 71.49447632 C-133.80217778 70.83664681 -134.99404581 69.56939428 -137 67 C-137.53853189 63.23027674 -137.64931861 61.02903644 -135.59350586 57.77099609 C-131.53860964 55.00207797 -127.76451221 55.81773186 -123.00390625 56.1640625 C-102.64777658 58.11615854 -102.64777658 58.11615854 -83.64355469 52.93994141 C-79.02108207 47.91988726 -76.77342125 42.17802656 -74.87841797 35.69873047 C-73.15413797 30.40128993 -70.64488367 26.09658911 -66 23 C-62.46446052 22.79602657 -60.0949684 23.02610984 -57.375 25.4453125 C-50.84268846 33.4536752 -43.28595542 44.14213373 -40 54 C-39.34 54 -38.68 54 -38 54 C-37.73300293 53.29238525 -37.46600586 52.58477051 -37.19091797 51.85571289 C-35.94928686 48.87839451 -34.50828545 46.13017613 -32.9453125 43.30859375 C-32.3359082 42.20765381 -31.72650391 41.10671387 -31.09863281 39.97241211 C-30.44119819 38.79386085 -29.78331143 37.61556172 -29.125 36.4375 C-28.79318726 35.84228546 -28.46137451 35.24707092 -28.11950684 34.63381958 C-23.58902505 26.51423183 -18.99482094 18.43423011 -14.25 10.4375 C-13.76160645 9.60597412 -13.27321289 8.77444824 -12.77001953 7.91772461 C-12.08721924 6.78089233 -12.08721924 6.78089233 -11.390625 5.62109375 C-10.99907227 4.9655249 -10.60751953 4.30995605 -10.20410156 3.63452148 C-7.36183826 -0.22374145 -4.4873071 -0.54946618 0 0 Z " fill="#030101" transform="translate(279,193)"/>
<path d="M0 0 C0.33 0 0.66 0 1 0 C1 29.04 1 58.08 1 88 C4.3 88.66 7.6 89.32 11 90 C14.19567455 90.74837079 17.38029217 91.5117723 20.5625 92.3125 C21.43253662 92.5305127 22.30257324 92.74852539 23.19897461 92.97314453 C29.20517503 94.49757201 35.14276233 96.18808077 41.07250977 97.98364258 C47.83465437 100.00550745 54.66308352 101.75059519 61.5 103.5 C69.78908786 105.6210884 78.0284001 107.82622134 86.21850586 110.30126953 C91.27626143 111.81915838 96.36959275 113.10490807 101.50195312 114.34277344 C106.58139103 115.59177532 111.59115247 117.03122561 116.60473633 118.52172852 C120.73768845 119.74947093 124.87854593 120.94876089 129.02197266 122.140625 C130.91954422 122.68821083 132.81528276 123.2422185 134.70849609 123.8046875 C154.93192793 129.73455076 175.81808138 130.439248 196 124 C197.06186523 123.66677734 198.12373047 123.33355469 199.21777344 122.99023438 C205.71530806 120.94173313 212.19561085 118.84508021 218.66796875 116.71875 C226.87863871 114.02272535 235.12224133 111.43876214 243.375 108.875 C246.04579856 108.04369211 248.71632631 107.21151773 251.38671875 106.37890625 C252.03193481 106.17773697 252.67715088 105.97656769 253.34191895 105.76930237 C267.6473531 101.30458009 281.92041522 96.74426629 296.11132812 91.92724609 C302.18044988 89.88715741 308.2845901 87.98014804 314.40625 86.10546875 C316.97573207 85.31319343 319.54496047 84.52009943 322.11416626 83.72692871 C323.8100847 83.20666712 325.5074724 82.69116753 327.20639038 82.18078613 C342.96426437 77.61925441 342.96426437 77.61925441 356 68 C356.48648483 73.8378179 355.54980645 78.24023446 352 83 C346.69327609 88.81521835 340.45494091 91.09087968 333.125 93.5625 C332.10664063 93.92279297 331.08828125 94.28308594 330.0390625 94.65429688 C324.23169413 96.67753227 318.37994715 98.49721299 312.47265625 100.203125 C300.32202174 103.71691981 288.30642772 107.66533656 276.27204132 111.55456924 C274.29276533 112.19387429 272.3131566 112.83213836 270.33343506 113.47006226 C255.73781182 118.17339911 241.15445017 122.90786111 226.625 127.8125 C211.62008368 132.87203716 196.44555969 137.46886053 181 141 C180.2678125 141.18175781 179.535625 141.36351562 178.78125 141.55078125 C163.39531185 144.03586957 148.76834692 141.17796418 134 137 C132.48479574 136.58699496 130.96918478 136.17547843 129.453125 135.765625 C126.51219247 134.96399685 123.57680311 134.1452356 120.64453125 133.3125 C115.5230047 131.85895989 110.38724542 130.45930002 105.25 129.0625 C103.38020773 128.55338764 101.51041607 128.04427304 99.640625 127.53515625 C98.70798828 127.28137207 97.77535156 127.02758789 96.81445312 126.76611328 C92.20915088 125.51251869 87.60460902 124.256138 83 123 C81.16667042 122.49998622 79.33333709 121.99998623 77.5 121.5 C66.5 118.5 66.5 118.5 63.75097656 117.75024414 C61.91440304 117.24937527 60.07781445 116.74856162 58.24121094 116.24780273 C53.70732849 115.01154485 49.17369681 113.77438351 44.640625 112.53515625 C42.84376153 112.04422864 41.0468865 111.55334332 39.25 111.0625 C38.36731445 110.82120361 37.48462891 110.57990723 36.57519531 110.33129883 C31.35598567 108.90707224 26.1329025 107.49824332 20.90625 106.1015625 C19.12105957 105.62384399 19.12105957 105.62384399 17.29980469 105.13647461 C14.96762498 104.51300951 12.63495613 103.89137075 10.30175781 103.27172852 C8.72152832 102.84911743 8.72152832 102.84911743 7.109375 102.41796875 C6.17061523 102.16813232 5.23185547 101.9182959 4.26464844 101.66088867 C2 101 2 101 0 100 C0 67 0 34 0 0 Z " fill="#F9B882" transform="translate(84,351)"/>
<path d="M0 0 C2.6796875 1.75390625 2.6796875 1.75390625 5 5 C5.61947255 9.11973815 5.47030911 13.15847862 5.3125 17.3125 C5.28994141 18.43462891 5.26738281 19.55675781 5.24414062 20.71289062 C5.18533776 23.47662536 5.10320401 26.23762554 5 29 C5.70084717 28.97381592 6.40169434 28.94763184 7.1237793 28.9206543 C10.3114565 28.8164646 13.49877526 28.75160417 16.6875 28.6875 C17.79029297 28.64560547 18.89308594 28.60371094 20.02929688 28.56054688 C28.21764532 28.43685581 28.21764532 28.43685581 32.234375 31.328125 C34.39246181 34.59390239 34.73505282 36.16139081 34 40 C31.84383959 42.81254907 30.70028441 43.88806042 27.15917969 44.45410156 C26.09086914 44.4331543 25.02255859 44.41220703 23.921875 44.390625 C22.76171875 44.37773438 21.6015625 44.36484375 20.40625 44.3515625 C19.1996875 44.31804687 17.993125 44.28453125 16.75 44.25 C15.52796875 44.23195312 14.3059375 44.21390625 13.046875 44.1953125 C10.03045922 44.148181 7.01562509 44.08239413 4 44 C4.02094727 44.76666992 4.04189453 45.53333984 4.06347656 46.32324219 C4.14665158 49.7986946 4.19866575 53.27393763 4.25 56.75 C4.30027344 58.55984375 4.30027344 58.55984375 4.3515625 60.40625 C4.36445313 61.56640625 4.37734375 62.7265625 4.390625 63.921875 C4.41157227 64.99018555 4.43251953 66.05849609 4.45410156 67.15917969 C3.88793099 70.7010941 2.81825001 71.84846015 0 74 C-3 74.5 -3 74.5 -6 74 C-8.81825001 71.84846015 -9.88793099 70.7010941 -10.45410156 67.15917969 C-10.4331543 66.09086914 -10.41220703 65.02255859 -10.390625 63.921875 C-10.37128906 62.18164062 -10.37128906 62.18164062 -10.3515625 60.40625 C-10.31804687 59.1996875 -10.28453125 57.993125 -10.25 56.75 C-10.23195313 55.52796875 -10.21390625 54.3059375 -10.1953125 53.046875 C-10.148181 50.03045922 -10.08239413 47.01562509 -10 44 C-10.76666992 44.02618408 -11.53333984 44.05236816 -12.32324219 44.0793457 C-15.79861949 44.18331223 -19.27366983 44.24832724 -22.75 44.3125 C-23.9565625 44.35439453 -25.163125 44.39628906 -26.40625 44.43945312 C-27.56640625 44.45556641 -28.7265625 44.47167969 -29.921875 44.48828125 C-30.99018555 44.51446533 -32.05849609 44.54064941 -33.15917969 44.56762695 C-36 44 -36 44 -38.37988281 41.69604492 C-40 39 -40 39 -40 35.375 C-38.87711094 31.58524943 -38.3371621 30.9051709 -35 29 C-32.34277344 28.65942383 -32.34277344 28.65942383 -29.359375 28.70703125 C-27.75449219 28.7215332 -27.75449219 28.7215332 -26.1171875 28.73632812 C-25.00601562 28.76146484 -23.89484375 28.78660156 -22.75 28.8125 C-21.06003906 28.83280273 -21.06003906 28.83280273 -19.3359375 28.85351562 C-16.55680736 28.88884355 -13.77864637 28.9381748 -11 29 C-11.01571045 28.3294458 -11.0314209 27.6588916 -11.04760742 26.96801758 C-11.11014658 23.9162649 -11.14905063 20.86464732 -11.1875 17.8125 C-11.21263672 16.75740234 -11.23777344 15.70230469 -11.26367188 14.61523438 C-11.27333984 13.59365234 -11.28300781 12.57207031 -11.29296875 11.51953125 C-11.3086792 10.58214111 -11.32438965 9.64475098 -11.34057617 8.67895508 C-10.93229508 5.46743647 -9.88830698 3.60621369 -8 1 C-5.11138291 -0.44430855 -3.20352299 -0.37688506 0 0 Z " fill="#060606" transform="translate(426,56)"/>
<path d="M0 0 C0.33 0 0.66 0 1 0 C1.59919493 4.1087652 1.79044499 7.55333652 -0.2421875 11.2734375 C-4.42607477 16.45991527 -8.47243998 18.91599258 -15 20 C-27.05597899 20.73582911 -38.82808126 19.10292898 -50.75 17.5 C-71.00282426 13.68164107 -71.00282426 13.68164107 -90 19 C-90.66 19.33 -91.32 19.66 -92 20 C-92.56903668 14.53724787 -91.70131247 11.31691881 -88.5234375 6.8046875 C-85.99831254 3.81338562 -83.78846816 1.91471404 -80 1 C-70.82282435 1.01843732 -61.65126154 2.52552917 -52.57989502 3.78689575 C-42.12344763 5.21539205 -31.6904093 6.42016623 -21.125 6.5625 C-20.23627197 6.58900635 -19.34754395 6.6155127 -18.43188477 6.64282227 C-11.91742923 6.60725824 -4.77169937 4.77169937 0 0 Z " fill="#FBB983" transform="translate(302,356)"/>
<path d="M0 0 C1.59234584 0.24155928 3.18479323 0.48245009 4.77734375 0.72265625 C8.64444302 1.30740478 12.51005594 1.90117893 16.375 2.5 C13.60191319 5.3372441 10.88744048 8.026017 7.67578125 10.359375 C7.02416016 10.83503906 6.37253906 11.31070312 5.70117188 11.80078125 C4.7044043 12.51814453 4.7044043 12.51814453 3.6875 13.25 C3.01138672 13.74371094 2.33527344 14.23742187 1.63867188 14.74609375 C-5.45690025 19.90009141 -10.20915834 20.23966356 -19 19.0390625 C-28.72983227 17.15943581 -28.72983227 17.15943581 -31.9375 13.6875 C-33.83382474 10.10555327 -34.37034498 8.47517321 -33.625 4.5 C-26.82729785 -7.50927379 -11.61783256 -1.80280884 0 0 Z " fill="#F97D84" transform="translate(250.625,387.5)"/>
<path d="M0 0 C17.82 0 35.64 0 54 0 C54 4.29 54 8.58 54 13 C36.18 13 18.36 13 0 13 C0 8.71 0 4.42 0 0 Z " fill="#61D8F8" transform="translate(15,450)"/>
</svg>
